<svg width="18" height="18" viewBox="0 0 18 18" fill="none" xmlns="http://www.w3.org/2000/svg">
<path d="M5.60583 10.2329C6.78164 10.2329 7.72396 11.1844 7.72396 12.3686V15.2114C7.72396 16.3872 6.78164 17.3462 5.60583 17.3462H2.7872C1.61973 17.3462 0.669067 16.3872 0.669067 15.2114L0.669067 12.3686C0.669067 11.1844 1.61973 10.2329 2.7872 10.2329L5.60583 10.2329ZM15.2293 10.2329C16.3967 10.2329 17.3474 11.1844 17.3474 12.3686V15.2114C17.3474 16.3872 16.3967 17.3462 15.2293 17.3462H12.4106C11.2348 17.3462 10.2925 16.3872 10.2925 15.2114L10.2925 12.3686C10.2925 11.1844 11.2348 10.2329 12.4106 10.2329H15.2293ZM5.60583 0.668213C6.78164 0.668213 7.72396 1.62721 7.72396 2.80386L7.72396 5.64667C7.72396 6.83082 6.78164 7.78148 5.60583 7.78148H2.7872C1.61973 7.78148 0.669067 6.83082 0.669067 5.64667L0.669067 2.80386C0.669067 1.62721 1.61973 0.668213 2.7872 0.668213L5.60583 0.668213ZM15.2293 0.668213C16.3967 0.668213 17.3474 1.62721 17.3474 2.80386V5.64667C17.3474 6.83082 16.3967 7.78148 15.2293 7.78148L12.4106 7.78148C11.2348 7.78148 10.2925 6.83082 10.2925 5.64667L10.2925 2.80386C10.2925 1.62721 11.2348 0.668213 12.4106 0.668213L15.2293 0.668213Z" fill="#1E617A"/>
</svg>
